<?xml version="1.0"?>
<svg xmlns="http://www.w3.org/2000/svg" height="512px" viewBox="1 -49 511.999 511" width="512px" class=""><g><path d="m487.933594 50.199219h-9.066406v-25.632813c0-13.269531-10.796876-24.066406-24.066407-24.066406h-132.53125c-29.070312 0-54.253906 16.90625-66.269531 41.398438-12.011719-24.492188-37.199219-41.398438-66.265625-41.398438h-132.535156c-13.269531 0-24.066407 10.796875-24.066407 24.066406v25.632813h-9.066406c-13.269531 0-24.066406 10.796875-24.066406 24.066406v314.765625c0 13.269531 10.796875 24.066406 24.066406 24.066406h100.96875c4.140625 0 7.5-3.355468 7.5-7.5 0-4.140625-3.359375-7.5-7.5-7.5h-100.96875c-5 0-9.066406-4.066406-9.066406-9.066406v-314.765625c0-5 4.066406-9.066406 9.066406-9.066406h9.066406v224.414062.019531 66.265626c0 13.269531 10.796876 24.066406 24.066407 24.066406h158.167969v18.132812h-60.335938c-4.140625 0-7.5 3.359375-7.5 7.5 0 4.144532 3.359375 7.5 7.5 7.5h332.902344c13.269531 0 24.066406-10.792968 24.066406-24.066406v-314.765625c0-13.269531-10.796875-24.066406-24.066406-24.066406zm-198.800782 314.765625h-25.15625c3.695313-28.875 28.425782-51.265625 58.289063-51.265625h132.535156c3.203125 0 6.265625-.628907 9.066407-1.773438v19.90625h-141.601563c-4.140625 0-7.5 3.359375-7.5 7.5s3.359375 7.5 7.5 7.5h141.601563v9.066407c0 5-4.066407 9.066406-9.066407 9.066406zm33.132813-349.464844h132.535156c5 0 9.066407 4.066406 9.066407 9.066406v265.066406.007813c-.007813 4.996094-4.070313 9.058594-9.070313 9.058594h-132.53125c-23.960937 0-45.28125 11.492187-58.765625 29.242187v-253.675781c0-32.402344 26.363281-58.765625 58.765625-58.765625zm-274.132813 9.066406c0-5 4.066407-9.066406 9.066407-9.066406h132.535156c32.402344 0 58.765625 26.363281 58.765625 58.765625v253.679687c-13.484375-17.753906-34.804688-29.246093-58.765625-29.246093h-132.535156c-4.996094 0-9.0625-4.0625-9.066407-9.058594 0-.003906 0-.007813 0-.007813zm0 331.332032v-9.066407h141.601563c4.144531 0 7.5-3.355469 7.5-7.5 0-4.140625-3.355469-7.5-7.5-7.5h-141.601563v-19.90625c2.800782 1.144531 5.863282 1.773438 9.066407 1.773438h132.535156c29.863281 0 54.59375 22.390625 58.289063 51.265625h-190.824219c-5 0-9.066407-4.066406-9.066407-9.066406zm182.234376 42.199218v-18.132812h51.265624v18.132812zm266.632812-9.066406c0 5-4.066406 9.066406-9.066406 9.066406h-191.300782v-18.132812h158.167969c13.269531 0 24.066407-10.796875 24.066407-24.066406v-66.265626c0-.007812 0-.015624 0-.019531v-224.414062h9.066406c5 0 9.066406 4.066406 9.066406 9.066406zm0 0" data-original="#000000" class="active-path" data-old_color="#000000" fill="#45B09E"/><path d="m118.484375 113.183594-4.472656 26.082031c-.484375 2.8125.671875 5.65625 2.980469 7.335937 1.308593.949219 2.855468 1.433594 4.410156 1.433594 1.191406 0 2.390625-.285156 3.488281-.863281l23.425781-12.316406 23.421875 12.316406c2.527344 1.328125 5.589844 1.105469 7.898438-.570313 2.308593-1.679687 3.46875-4.523437 2.984375-7.335937l-4.472656-26.082031 18.949218-18.472656c2.042969-1.992188 2.777344-4.972657 1.898438-7.6875-.882813-2.714844-3.230469-4.695313-6.054688-5.105469l-26.1875-3.804688-11.714844-23.734375c-1.261718-2.558594-3.871093-4.179687-6.726562-4.179687-2.851562 0-5.460938 1.621093-6.722656 4.179687l-11.714844 23.734375-26.1875 3.804688c-2.824219.410156-5.171875 2.386719-6.054688 5.105469-.882812 2.714843-.148437 5.695312 1.898438 7.6875zm17.453125-20.796875c2.445312-.351563 4.554688-1.886719 5.648438-4.101563l6.730468-13.640625 6.730469 13.640625c1.09375 2.214844 3.207031 3.75 5.648437 4.101563l15.050782 2.191406-10.890625 10.617187c-1.769531 1.722657-2.574219 4.203126-2.15625 6.636719l2.570312 14.992188-13.464843-7.078125c-1.089844-.574219-2.289063-.863282-3.488282-.863282-1.199218 0-2.398437.289063-3.492187.863282l-13.460938 7.078125 2.570313-14.992188c.417968-2.433593-.386719-4.914062-2.15625-6.640625l-10.890625-10.617187zm0 0" data-original="#000000" class="active-path" data-old_color="#000000" fill="#45B09E"/><path d="m90.335938 181.167969h115.964843c4.140625 0 7.5-3.359375 7.5-7.5 0-4.144531-3.359375-7.5-7.5-7.5h-115.964843c-4.144532 0-7.5 3.355469-7.5 7.5 0 4.140625 3.355468 7.5 7.5 7.5zm0 0" data-original="#000000" class="active-path" data-old_color="#000000" fill="#45B09E"/><path d="m90.335938 222.582031h115.964843c4.140625 0 7.5-3.359375 7.5-7.5s-3.359375-7.5-7.5-7.5h-115.964843c-4.144532 0-7.5 3.359375-7.5 7.5s3.355468 7.5 7.5 7.5zm0 0" data-original="#000000" class="active-path" data-old_color="#000000" fill="#45B09E"/><path d="m90.335938 264h115.964843c4.140625 0 7.5-3.359375 7.5-7.5s-3.359375-7.5-7.5-7.5h-115.964843c-4.144532 0-7.5 3.359375-7.5 7.5s3.355468 7.5 7.5 7.5zm0 0" data-original="#000000" class="active-path" data-old_color="#000000" fill="#45B09E"/><path d="m305.699219 181.167969h115.964843c4.144532 0 7.5-3.359375 7.5-7.5 0-4.144531-3.355468-7.5-7.5-7.5h-115.964843c-4.140625 0-7.5 3.355469-7.5 7.5 0 4.140625 3.359375 7.5 7.5 7.5zm0 0" data-original="#000000" class="active-path" data-old_color="#000000" fill="#45B09E"/><path d="m305.699219 222.582031h115.964843c4.144532 0 7.5-3.359375 7.5-7.5s-3.355468-7.5-7.5-7.5h-115.964843c-4.140625 0-7.5 3.359375-7.5 7.5s3.359375 7.5 7.5 7.5zm0 0" data-original="#000000" class="active-path" data-old_color="#000000" fill="#45B09E"/><path d="m305.699219 139.75h115.964843c4.144532 0 7.5-3.359375 7.5-7.5s-3.355468-7.5-7.5-7.5h-115.964843c-4.140625 0-7.5 3.359375-7.5 7.5s3.359375 7.5 7.5 7.5zm0 0" data-original="#000000" class="active-path" data-old_color="#000000" fill="#45B09E"/><path d="m305.699219 98.332031h115.964843c4.144532 0 7.5-3.355469 7.5-7.5 0-4.140625-3.355468-7.5-7.5-7.5h-115.964843c-4.140625 0-7.5 3.359375-7.5 7.5 0 4.144531 3.359375 7.5 7.5 7.5zm0 0" data-original="#000000" class="active-path" data-old_color="#000000" fill="#45B09E"/><path d="m421.664062 249h-33.132812c-4.140625 0-7.5 3.359375-7.5 7.5s3.359375 7.5 7.5 7.5h33.132812c4.144532 0 7.5-3.359375 7.5-7.5s-3.355468-7.5-7.5-7.5zm0 0" data-original="#000000" class="active-path" data-old_color="#000000" fill="#45B09E"/></g> </svg>
