<?xml version="1.0"?>
<svg xmlns="http://www.w3.org/2000/svg" id="Capa_1" enable-background="new 0 0 512 512" height="512px" viewBox="0 0 512 512" width="512px" class=""><g><g><path d="m81.151 232.687h123.077c4.142 0 7.5-3.358 7.5-7.5s-3.358-7.5-7.5-7.5h-123.077c-4.142 0-7.5 3.358-7.5 7.5s3.358 7.5 7.5 7.5z" data-original="#000000" class="active-path" data-old_color="#000000" fill="#555555"/><path d="m81.151 307.152h123.077c4.142 0 7.5-3.358 7.5-7.5s-3.358-7.5-7.5-7.5h-123.077c-4.142 0-7.5 3.358-7.5 7.5s3.358 7.5 7.5 7.5z" data-original="#000000" class="active-path" data-old_color="#000000" fill="#555555"/><path d="m81.151 381.615h41.042c4.142 0 7.5-3.358 7.5-7.5s-3.358-7.5-7.5-7.5h-41.042c-4.142 0-7.5 3.358-7.5 7.5s3.358 7.5 7.5 7.5z" data-original="#000000" class="active-path" data-old_color="#000000" fill="#555555"/><path d="m81.151 269.919h123.077c4.142 0 7.5-3.358 7.5-7.5s-3.358-7.5-7.5-7.5h-123.077c-4.142 0-7.5 3.358-7.5 7.5s3.358 7.5 7.5 7.5z" data-original="#000000" class="active-path" data-old_color="#000000" fill="#555555"/><path d="m81.151 344.384h123.077c4.142 0 7.5-3.358 7.5-7.5s-3.358-7.5-7.5-7.5h-123.077c-4.142 0-7.5 3.358-7.5 7.5s3.358 7.5 7.5 7.5z" data-original="#000000" class="active-path" data-old_color="#000000" fill="#555555"/><path d="m436.706 180.455h-123.077c-4.143 0-7.5 3.358-7.5 7.5s3.357 7.5 7.5 7.5h123.077c4.143 0 7.5-3.358 7.5-7.5s-3.357-7.5-7.5-7.5z" data-original="#000000" class="active-path" data-old_color="#000000" fill="#555555"/><path d="m436.706 217.687h-123.077c-4.143 0-7.5 3.358-7.5 7.5s3.357 7.5 7.5 7.5h123.077c4.143 0 7.5-3.358 7.5-7.5s-3.357-7.5-7.5-7.5z" data-original="#000000" class="active-path" data-old_color="#000000" fill="#555555"/><path d="m436.706 292.152h-123.077c-4.143 0-7.5 3.358-7.5 7.5s3.357 7.5 7.5 7.5h123.077c4.143 0 7.5-3.358 7.5-7.5s-3.357-7.5-7.5-7.5z" data-original="#000000" class="active-path" data-old_color="#000000" fill="#555555"/><path d="m436.706 366.615h-123.077c-4.143 0-7.5 3.358-7.5 7.5s3.357 7.5 7.5 7.5h123.077c4.143 0 7.5-3.358 7.5-7.5s-3.357-7.5-7.5-7.5z" data-original="#000000" class="active-path" data-old_color="#000000" fill="#555555"/><path d="m313.629 269.919h61.538c4.143 0 7.5-3.358 7.5-7.5s-3.357-7.5-7.5-7.5h-61.538c-4.143 0-7.5 3.358-7.5 7.5s3.357 7.5 7.5 7.5z" data-original="#000000" class="active-path" data-old_color="#000000" fill="#555555"/><path d="m436.706 329.384h-123.077c-4.143 0-7.5 3.358-7.5 7.5s3.357 7.5 7.5 7.5h123.077c4.143 0 7.5-3.358 7.5-7.5s-3.357-7.5-7.5-7.5z" data-original="#000000" class="active-path" data-old_color="#000000" fill="#555555"/><path d="m485.23 165.76v-13.774c0-16.619-13.521-30.14-30.141-30.14h-151.079c-20.478 0-38.388 11.154-48.009 27.698-9.62-16.544-27.527-27.699-48.001-27.699h-9.429c1.156-6.079 1.769-12.349 1.769-18.76 0-17.76-4.708-35.2-13.615-50.435-2.091-3.576-6.684-4.78-10.26-2.689-3.576 2.09-4.78 6.684-2.689 10.26 7.565 12.94 11.564 27.763 11.564 42.865 0 46.963-38.207 85.17-85.17 85.17s-85.17-38.208-85.17-85.171 38.207-85.17 85.17-85.17c20.634 0 40.537 7.47 56.042 21.035 3.118 2.728 7.857 2.412 10.583-.706 2.728-3.118 2.411-7.856-.706-10.583-18.24-15.958-41.65-24.746-65.918-24.746-55.235 0-100.171 44.936-100.171 100.17 0 24.083 8.544 46.206 22.759 63.502-13.103 3.628-22.754 15.652-22.754 29.894v282.688c0 16.496 13.42 29.916 29.916 29.916h452.154c16.501 0 29.926-13.42 29.926-29.916v-282.688c-.001-15.659-11.67-28.638-26.771-30.721zm-443.47 281.521c4.453 2.598 9.624 4.094 15.14 4.094h151.1c12.666 0 24.22 5.77 31.76 15.325h-182.862c-8.348 0-15.139-6.791-15.139-15.139v-4.28zm97.157-251.826h65.313c4.142 0 7.5-3.358 7.5-7.5s-3.358-7.5-7.5-7.5h-40.507c13.844-11.392 24.585-26.421 30.757-43.61h13.52c22.332 0 40.5 18.173 40.5 40.51v276.497c-10.267-10.977-24.759-17.477-40.5-17.477h-151.1c-8.348 0-15.14-6.787-15.14-15.13v-236.832c16.454 11.851 36.63 18.842 58.41 18.842 13.73 0 26.822-2.779 38.747-7.8zm358.083 283.714c0 8.225-6.695 14.916-14.926 14.916h-452.154c-8.225 0-14.916-6.691-14.916-14.916v-282.688c0-7.355 4.988-13.552 11.755-15.427v1.248 238.943 30.316c0 16.619 13.52 30.139 30.139 30.139h398.194c16.618 0 30.139-13.52 30.139-30.139v-30.317h-.001v-30.45c0-4.142-3.357-7.5-7.5-7.5s-7.5 3.358-7.5 7.5v30.45c0 8.343-6.792 15.13-15.141 15.13h-151.079c-15.746 0-30.241 6.5-40.51 17.478v-276.497c0-22.337 18.173-40.51 40.51-40.51h151.08c8.349 0 15.141 6.792 15.141 15.14v208.81c0 4.142 3.357 7.5 7.5 7.5s7.5-3.358 7.5-7.5v-179.743c6.775 1.872 11.77 8.071 11.77 15.428v282.689zm-224.759-12.469c7.541-9.556 19.098-15.325 31.769-15.325h151.08c5.517 0 10.688-1.497 15.142-4.095v4.281c0 8.348-6.791 15.139-15.139 15.139z" data-original="#000000" class="active-path" data-old_color="#000000" fill="#555555"/><path d="m100.171 27.937c-3.636 0-7.255.259-10.734.768-36.724 5.25-64.418 37.228-64.418 74.384 0 37.155 27.694 69.133 64.394 74.38 3.499.512 7.118.771 10.758.771 41.436 0 75.146-33.713 75.146-75.151 0-41.439-33.71-75.152-75.146-75.152zm0 135.303c-2.916 0-5.805-.207-8.611-.617-29.383-4.201-51.541-29.795-51.541-59.535s22.158-55.334 51.564-59.538c2.786-.407 5.675-.614 8.588-.614 33.165 0 60.146 26.984 60.146 60.152 0 33.169-26.981 60.152-60.146 60.152z" data-original="#000000" class="active-path" data-old_color="#000000" fill="#555555"/><path d="m126.377 110.589h-26.209c-4.142 0-7.5-3.358-7.5-7.5v-42.526c0-4.142 3.358-7.5 7.5-7.5s7.5 3.358 7.5 7.5v35.026h18.709c4.142 0 7.5 3.358 7.5 7.5s-3.357 7.5-7.5 7.5z" data-original="#000000" class="active-path" data-old_color="#000000" fill="#555555"/></g></g> </svg>
