<?xml version="1.0"?>
<svg xmlns="http://www.w3.org/2000/svg" id="Capa_1" enable-background="new 0 0 510.189 510.189" height="512px" viewBox="0 0 510.189 510.189" width="512px" class=""><g transform="matrix(0.9801 0 0 0.9801 5.07638 -4.82412)"><g><path d="m425.878 366.237h-125.14c-4.143 0-7.5 3.357-7.5 7.5s3.357 7.5 7.5 7.5h125.14c4.143 0 7.5-3.357 7.5-7.5s-3.357-7.5-7.5-7.5z" data-original="#000000" class="active-path" data-old_color="#000000" fill="#555555"/><path d="m84.311 160.523h63.105c4.143 0 7.5-3.357 7.5-7.5s-3.357-7.5-7.5-7.5h-63.105c-4.143 0-7.5 3.357-7.5 7.5s3.357 7.5 7.5 7.5z" data-original="#000000" class="active-path" data-old_color="#000000" fill="#555555"/><path d="m84.311 192.053h63.105c4.143 0 7.5-3.357 7.5-7.5s-3.357-7.5-7.5-7.5h-63.105c-4.143 0-7.5 3.357-7.5 7.5s3.357 7.5 7.5 7.5z" data-original="#000000" class="active-path" data-old_color="#000000" fill="#555555"/><path d="m84.311 223.585h63.105c4.143 0 7.5-3.357 7.5-7.5s-3.357-7.5-7.5-7.5h-63.105c-4.143 0-7.5 3.357-7.5 7.5s3.357 7.5 7.5 7.5z" data-original="#000000" class="active-path" data-old_color="#000000" fill="#555555"/><path d="m84.311 255.115h92.875c4.143 0 7.5-3.357 7.5-7.5s-3.357-7.5-7.5-7.5h-92.875c-4.143 0-7.5 3.357-7.5 7.5s3.357 7.5 7.5 7.5z" data-original="#000000" class="active-path" data-old_color="#000000" fill="#555555"/><path d="m84.311 286.645h107.523c4.143 0 7.5-3.357 7.5-7.5s-3.357-7.5-7.5-7.5h-107.523c-4.143 0-7.5 3.357-7.5 7.5s3.357 7.5 7.5 7.5z" data-original="#000000" class="active-path" data-old_color="#000000" fill="#555555"/><path d="m84.311 318.176h125.141c4.143 0 7.5-3.357 7.5-7.5s-3.357-7.5-7.5-7.5h-125.141c-4.143 0-7.5 3.357-7.5 7.5s3.357 7.5 7.5 7.5z" data-original="#000000" class="active-path" data-old_color="#000000" fill="#555555"/><path d="m84.311 349.707h125.141c4.143 0 7.5-3.357 7.5-7.5s-3.357-7.5-7.5-7.5h-125.141c-4.143 0-7.5 3.357-7.5 7.5s3.357 7.5 7.5 7.5z" data-original="#000000" class="active-path" data-old_color="#000000" fill="#555555"/><path d="m84.311 381.237h125.141c4.143 0 7.5-3.357 7.5-7.5s-3.357-7.5-7.5-7.5h-125.141c-4.143 0-7.5 3.357-7.5 7.5s3.357 7.5 7.5 7.5z" data-original="#000000" class="active-path" data-old_color="#000000" fill="#555555"/><path d="m425.878 145.523h-63.105c-4.143 0-7.5 3.357-7.5 7.5s3.357 7.5 7.5 7.5h63.105c4.143 0 7.5-3.357 7.5-7.5s-3.357-7.5-7.5-7.5z" data-original="#000000" class="active-path" data-old_color="#000000" fill="#555555"/><path d="m425.878 177.053h-63.105c-4.143 0-7.5 3.357-7.5 7.5s3.357 7.5 7.5 7.5h63.105c4.143 0 7.5-3.357 7.5-7.5s-3.357-7.5-7.5-7.5z" data-original="#000000" class="active-path" data-old_color="#000000" fill="#555555"/><path d="m425.878 208.585h-63.105c-4.143 0-7.5 3.357-7.5 7.5s3.357 7.5 7.5 7.5h63.105c4.143 0 7.5-3.357 7.5-7.5s-3.357-7.5-7.5-7.5z" data-original="#000000" class="active-path" data-old_color="#000000" fill="#555555"/><path d="m425.879 240.115h-92.99c-4.143 0-7.5 3.357-7.5 7.5s3.357 7.5 7.5 7.5h92.99c4.143 0 7.5-3.357 7.5-7.5s-3.358-7.5-7.5-7.5z" data-original="#000000" class="active-path" data-old_color="#000000" fill="#555555"/><path d="m425.878 271.645h-107.638c-4.143 0-7.5 3.357-7.5 7.5s3.357 7.5 7.5 7.5h107.638c4.143 0 7.5-3.357 7.5-7.5s-3.357-7.5-7.5-7.5z" data-original="#000000" class="active-path" data-old_color="#000000" fill="#555555"/><path d="m425.878 303.176h-125.14c-4.143 0-7.5 3.357-7.5 7.5s3.357 7.5 7.5 7.5h125.14c4.143 0 7.5-3.357 7.5-7.5s-3.357-7.5-7.5-7.5z" data-original="#000000" class="active-path" data-old_color="#000000" fill="#555555"/><path d="m425.878 334.707h-125.14c-4.143 0-7.5 3.357-7.5 7.5s3.357 7.5 7.5 7.5h125.14c4.143 0 7.5-3.357 7.5-7.5s-3.357-7.5-7.5-7.5z" data-original="#000000" class="active-path" data-old_color="#000000" fill="#555555"/><path d="m144.939 130.738h20.715c4.143 0 7.5-3.357 7.5-7.5s-3.357-7.5-7.5-7.5h-20.715c-4.143 0-7.5 3.357-7.5 7.5s3.358 7.5 7.5 7.5z" data-original="#000000" class="active-path" data-old_color="#000000" fill="#555555"/><path d="m372.635 123.238c0-4.143-3.357-7.5-7.5-7.5h-20.715c-4.143 0-7.5 3.357-7.5 7.5s3.357 7.5 7.5 7.5h20.715c4.142 0 7.5-3.358 7.5-7.5z" data-original="#000000" class="active-path" data-old_color="#000000" fill="#555555"/><path d="m171.882 206.393c2.931 2.929 7.678 2.928 10.607 0l14.648-14.648c2.929-2.93 2.929-7.678 0-10.607-2.93-2.928-7.678-2.928-10.607 0l-14.648 14.648c-2.929 2.929-2.929 7.677 0 10.607z" data-original="#000000" class="active-path" data-old_color="#000000" fill="#555555"/><path d="m323.544 65.338 14.647-14.647c2.929-2.93 2.929-7.678 0-10.607-2.93-2.928-7.678-2.928-10.607 0l-14.647 14.647c-2.929 2.93-2.929 7.678 0 10.607 2.93 2.929 7.677 2.928 10.607 0z" data-original="#000000" class="active-path" data-old_color="#000000" fill="#555555"/><path d="m255.037 41.355c4.143 0 7.5-3.357 7.5-7.5v-20.715c0-4.143-3.357-7.5-7.5-7.5s-7.5 3.357-7.5 7.5v20.715c0 4.143 3.358 7.5 7.5 7.5z" data-original="#000000" class="active-path" data-old_color="#000000" fill="#555555"/><path d="m312.938 181.137c-2.93 2.929-2.93 7.678-.001 10.606l14.647 14.648c2.931 2.931 7.68 2.928 10.606.001 2.93-2.929 2.93-7.678.001-10.606l-14.647-14.648c-2.929-2.928-7.678-2.929-10.606-.001z" data-original="#000000" class="active-path" data-old_color="#000000" fill="#555555"/><path d="m186.531 65.338c2.928 2.928 7.676 2.929 10.606-.001 2.929-2.929 2.929-7.678-.001-10.606l-14.648-14.647c-2.928-2.928-7.677-2.929-10.606.001-2.929 2.929-2.929 7.678.001 10.606z" data-original="#000000" class="active-path" data-old_color="#000000" fill="#555555"/><path d="m477.895 120.361v-6.489c0-14.595-11.873-26.468-26.468-26.468h-32.61c-4.143 0-7.5 3.357-7.5 7.5s3.357 7.5 7.5 7.5h32.61c6.323 0 11.468 5.145 11.468 11.468v302.419c0 6.323-5.145 11.467-11.468 11.467h-177.423c-6.323 0-11.467-5.144-11.467-11.467v-140.567h6.033c12.737 0 23.1-10.362 23.1-23.1v-6.62c6.656-.935 11.788-6.728 11.788-13.577v-14.771c0-5.928-3.875-11.182-9.399-13.017 0-7.499-.068-8.084.26-10.04.746-4.453 3.07-8.478 6.626-11.349 16.818-13.578 27.237-34.098 27.237-56.957 0-7.822-1.32-16.159-3.978-23.891h59.612c4.143 0 7.5-3.357 7.5-7.5s-3.357-7.5-7.5-7.5h-66.786c-13.469-21.362-37.625-35.495-65.476-34.211-24.415 1.124-45.934 14.59-58.395 34.211h-134.397c-14.594 0-26.467 11.873-26.467 26.468v6.489c-19.27 7.771-32.295 26.631-32.295 47.713v256.073c0 28.366 23.078 51.444 51.444 51.444h162.4c2.246 0 4.236 1.478 5.069 3.766 12.216 33.544 59.994 33.64 72.245.001.834-2.288 2.823-3.767 5.069-3.767h162.516c28.367 0 51.445-23.078 51.445-51.444v-112.717c0-4.143-3.357-7.5-7.5-7.5s-7.5 3.357-7.5 7.5v112.717c0 20.096-16.35 36.444-36.445 36.444h-162.514c-8.492 0-16.193 5.479-19.163 13.633-7.451 20.453-36.586 20.513-44.057.001-2.97-8.155-10.671-13.634-19.164-13.634h-162.4c-20.096 0-36.445-16.348-36.445-36.444v-256.073c0-12.787 6.771-24.426 17.295-30.965v279.184c0 14.595 11.873 26.468 26.467 26.468h177.308c7.272 0 14.053-2.985 18.968-8.026 4.867 5.01 11.71 8.025 18.967 8.025h177.423c14.595 0 26.468-11.873 26.468-26.467v-279.184c10.524 6.539 17.295 18.178 17.295 30.965v108.356c0 4.143 3.357 7.5 7.5 7.5s7.5-3.357 7.5-7.5v-108.356c-.002-21.082-13.027-39.942-32.296-47.711zm-201.225 132.264c0 4.466-3.634 8.1-8.1 8.1h-13.533-13.604c-.279 0-.555-.014-.827-.042-4.079-.416-7.272-3.871-7.272-8.058v-6.486h43.335v6.486zm-21.668-90.307c-3.639 0-6.6-2.961-6.6-6.6s2.961-6.6 6.6-6.6 6.6 2.961 6.6 6.6-2.961 6.6-6.6 6.6zm33.456 56.628v12.192c-7.296 0-60.343 0-66.912 0v-12.192zm-36.215-150.769c33.847-1.539 60.939 25.464 60.939 58.117 0 17.666-7.895 34.173-21.661 45.287-7.92 6.396-12.463 15.931-12.463 26.161v6.203h-16.557v-27.973c8.224-3.055 14.1-10.981 14.1-20.255 0-11.91-9.689-21.6-21.6-21.6s-21.6 9.689-21.6 21.6c0 9.274 5.876 17.2 14.1 20.255v27.973h-16.556v-6.195c0-10.166-4.63-19.775-12.703-26.363-14.418-11.768-22.204-29.193-21.36-47.81 1.351-29.691 25.666-54.033 55.361-55.4zm-204.948 45.695c0-6.323 5.144-11.468 11.467-11.468h127.073c-2.371 6.791-3.634 13.831-3.937 20.494-1.061 23.403 8.729 45.313 26.86 60.11 4.567 3.728 7.187 9.101 7.187 14.742v6.89c-5.543 1.841-9.399 7.096-9.399 13.017v14.771c0 6.923 5.218 12.654 11.788 13.576v6.622c0 12.736 10.362 23.099 23.1 23.099h6.104v140.566c0 6.323-5.144 11.467-11.468 11.467h-177.308c-5.928 0-10.819-4.521-11.407-10.296-.039-.385-.059-.776-.059-1.171-.001-36.571-.001-292.742-.001-302.419z" data-original="#000000" class="active-path" data-old_color="#000000" fill="#555555"/></g></g> </svg>
